<svg xmlns="http://www.w3.org/2000/svg" viewBox="0 0 380 100">
  <g transform="translate(0,0)">
    <!-- BingX icon: два полукруга образующие X, официальный синий цвет -->
    <path d="M10 50 Q10 10 50 10 Q70 10 80 26 L65 34 Q60 24 50 24 Q28 24 28 50 Q28 76 50 76 Q60 76 65 66 L80 74 Q70 90 50 90 Q10 90 10 50Z" fill="#2BA6E0"/>
    <path d="M90 50 Q90 10 50 10 Q30 10 20 26 L35 34 Q40 24 50 24 Q72 24 72 50 Q72 76 50 76 Q40 76 35 66 L20 74 Q30 90 50 90 Q90 90 90 50Z" fill="#2BA6E0" opacity="0.5"/>
  </g>
  <text x="105" y="72" font-family="'SF Pro Display', 'Helvetica Neue', Arial, sans-serif" font-weight="700" font-size="52" fill="white" letter-spacing="-1">BingX</text>
</svg>
